<?xml version="1.0" encoding="iso-8859-1"?>
<!-- Generator: Adobe Illustrator 19.0.0, SVG Export Plug-In . SVG Version: 6.00 Build 0)  -->
<svg version="1.1" id="Layer_1" xmlns="http://www.w3.org/2000/svg" xmlns:xlink="http://www.w3.org/1999/xlink" x="0px" y="0px"
	 viewBox="0 0 511.147 511.147" style="enable-background:new 0 0 511.147 511.147;" xml:space="preserve">
<g transform="translate(1)">
	<path style="fill:#FFE100;" d="M471.747,148.907c0,0-4.267-36.693-17.92-52.907c-17.067-21.333-35.84-21.333-44.373-22.187
		c-62.293-5.12-155.307-5.973-155.307-5.973l0,0c0,0-93.013,0.853-155.307,5.973C90.307,74.667,71.533,75.52,54.467,96
		c-13.653,16.213-17.92,52.907-17.92,52.907s-4.267,43.52-4.267,87.04v40.107c0,43.52,4.267,86.187,4.267,86.187
		s4.267,36.693,17.92,52.907c17.067,21.333,39.253,20.48,48.64,23.04c35.84,4.267,151.04,5.12,151.04,5.12s93.013,0,155.307-5.973
		c8.533-0.853,27.307-1.707,44.373-22.187c13.653-16.213,17.92-52.907,17.92-52.907s4.267-43.52,4.267-86.187v-40.107
		C476.013,192.427,471.747,148.907,471.747,148.907"/>
	<path style="fill:#FFFFFF;" d="M54.467,415.147c-13.653-16.213-17.92-52.907-17.92-52.907s-4.267-43.52-4.267-86.187v-40.107
		c0-43.52,4.267-86.187,4.267-86.187s4.267-37.547,17.92-53.76c17.067-21.333,35.84-21.333,44.373-22.187
		c62.293-5.12,155.307-5.973,155.307-5.973l0,0c0,0-104.107,0.853-173.227,5.973C71.533,74.667,50.2,75.52,31.427,96
		C16.92,112.213,11.8,148.907,11.8,148.907s-5.12,43.52-5.12,87.04v40.107c0,43.52,5.12,86.187,5.12,86.187
		s5.12,36.693,19.627,52.907c18.773,21.333,43.52,20.48,54.613,23.04c39.253,4.267,168.107,5.12,168.107,5.12
		s-115.2-0.853-151.04-5.12C93.72,435.627,71.533,436.48,54.467,415.147"/>
	<path style="fill:#FFA800;" d="M496.493,148.907c0,0-5.12-36.693-19.627-52.907c-18.773-21.333-40.107-21.333-49.493-22.187
		c-69.12-5.12-173.227-5.973-173.227-5.973l0,0c0,0,93.013,0.853,155.307,5.973c8.533,0.853,27.307,1.707,44.373,22.187
		c13.653,16.213,17.92,52.907,17.92,52.907s4.267,43.52,4.267,87.04v40.107c0,43.52-4.267,86.187-4.267,86.187
		s-4.267,36.693-17.92,52.907c-17.067,21.333-35.84,21.333-44.373,22.187c-33.28,2.56-75.093,4.267-107.52,5.12l0,0
		c35.84-0.853,86.187-1.707,125.44-5.12c9.387-0.853,30.72-1.707,49.493-22.187c14.507-16.213,19.627-52.907,19.627-52.907
		s5.12-42.667,5.12-86.187v-40.107C501.613,192.427,496.493,148.907,496.493,148.907"/>
	<polygon style="fill:#63D3FD;" points="194.413,169.387 194.413,354.56 356.547,264.107 	"/>
	<path d="M254.147,451.84c-5.12,0-129.707-1.707-168.96-5.12c-2.56-0.853-4.267-0.853-6.827-0.853
		c-13.653-1.707-34.987-4.267-52.907-24.747C9.24,403.2,4.12,365.653,4.12,363.947c0-0.853-5.12-44.373-5.12-87.04V236.8
		c0-43.52,5.12-87.04,5.12-87.04c0-1.707,5.12-40.107,22.187-58.027C45.08,70.4,66.413,67.84,78.36,66.987h2.56
		c17.92-1.707,39.253-2.56,63.147-3.413c5.12,0,8.533,3.413,8.533,8.533s-3.413,8.533-8.533,8.533
		c-23.893,0.853-45.227,1.707-62.293,3.413h-2.56C68.973,83.2,52.76,84.907,37.4,101.973c-11.093,11.947-16.213,39.253-17.92,48.64
		c0,0-5.12,42.667-5.12,85.333v40.107c0,41.813,5.12,84.48,5.12,85.333c0.853,9.387,6.827,36.693,17.067,47.787
		c13.653,15.36,30.72,17.92,42.667,18.773c2.56,0,5.12,0.853,7.68,0.853c38.4,4.267,166.4,5.973,167.253,5.973
		c0.853,0,104.107,0,172.373-5.12h2.56c9.387-0.853,26.453-2.56,40.96-19.627c11.093-11.947,16.213-39.253,17.92-48.64
		c0,0,5.12-42.667,5.12-85.333v-40.107c0-41.813-5.12-84.48-5.12-85.333c-0.853-9.387-6.827-36.693-17.067-47.787
		C456.387,85.76,439.32,84.053,429.933,83.2h-3.413c-68.267-5.973-171.52-6.827-172.373-6.827c0,0-27.307,0-42.667,0
		c-5.12,0-8.533-3.413-8.533-8.533c0-5.12,3.413-8.533,8.533-8.533c15.36,0,42.667,0,42.667,0c1.707,0,104.96,0.853,174.08,5.973
		h3.413c11.093,0.853,32.427,3.413,52.053,24.747c16.213,17.92,21.333,55.467,21.333,57.173c0,0.853,5.12,44.373,5.12,87.04v40.107
		c0,43.52-5.12,87.04-5.12,87.04c0,1.707-5.12,40.107-22.187,58.027c-18.773,21.333-40.107,23.893-52.053,24.747h-2.56
		C359.107,451.84,255,451.84,254.147,451.84z"/>
	<path d="M185.88,67.84c0-5.12-3.413-8.533-8.533-8.533c-5.12,0-8.533,3.413-8.533,8.533c0,5.12,3.413,8.533,8.533,8.533
		C182.467,76.373,185.88,72.96,185.88,67.84"/>
	<path d="M194.413,363.093c-1.707,0-2.56,0-4.267-0.853c-2.56-1.707-4.267-4.267-4.267-7.68V169.387c0-3.413,1.707-5.973,4.267-7.68
		s5.973-1.707,8.533,0l162.133,94.72c2.56,1.707,4.267,4.267,4.267,7.68s-1.707,5.973-4.267,7.68L198.68,362.24
		C196.973,363.093,196.12,363.093,194.413,363.093z M202.947,183.893v156.16l136.533-75.947L202.947,183.893z"/>
</g>
<g>
</g>
<g>
</g>
<g>
</g>
<g>
</g>
<g>
</g>
<g>
</g>
<g>
</g>
<g>
</g>
<g>
</g>
<g>
</g>
<g>
</g>
<g>
</g>
<g>
</g>
<g>
</g>
<g>
</g>
</svg>
